<?xml version="1.0" encoding="UTF-8" standalone="no"?>
<!-- Created with Inkscape (http://www.inkscape.org/) -->

<svg
   version="1.1"
   id="svg1869"
   xml:space="preserve"
   width="682.66669"
   height="682.66669"
   viewBox="0 0 682.66669 682.66669"
   xmlns="http://www.w3.org/2000/svg"
   xmlns:svg="http://www.w3.org/2000/svg"><defs
     id="defs1873"><clipPath
       clipPathUnits="userSpaceOnUse"
       id="clipPath1883"><path
         d="M 0,512 H 512 V 0 H 0 Z"
         id="path1881" /></clipPath></defs><g
     id="g1875"
     transform="matrix(1.3333333,0,0,-1.3333333,0,682.66667)"><g
       id="g1877"><g
         id="g1879"
         clip-path="url(#clipPath1883)"><g
           id="g1885"
           transform="translate(38.3701,475.4009)"><path
             d="m 0,0 h -18.78 c -6.63,0 -12,-5.37 -12,-12 v -311.44 c 0,-6.62 5.37,-12 12,-12 h 127.42"
             style="fill:none;stroke:#000000;stroke-width:15;stroke-linecap:round;stroke-linejoin:round;stroke-miterlimit:10;stroke-dasharray:none;stroke-opacity:1"
             id="path1887" /></g><g
           id="g1889"
           transform="translate(504.4102,169.4507)"><path
             d="m 0,0 v -17.49 c 0,-6.62 -5.37,-12 -12,-12 h -300.98"
             style="fill:none;stroke:#000000;stroke-width:15;stroke-linecap:round;stroke-linejoin:round;stroke-miterlimit:10;stroke-dasharray:none;stroke-opacity:1"
             id="path1891" /></g><g
           id="g1893"
           transform="translate(73.3701,475.4009)"><path
             d="m 0,0 h 419.04 c 6.63,0 12,-5.37 12,-12 v -258.95"
             style="fill:none;stroke:#000000;stroke-width:15;stroke-linecap:round;stroke-linejoin:round;stroke-miterlimit:10;stroke-dasharray:none;stroke-opacity:1"
             id="path1895" /></g><g
           id="g1897"
           transform="translate(408.1055,36.6025)"><path
             d="m 0,0 h -345.709 c -4.419,0 -8,3.582 -8,8 v 27.043 c 0,4.418 3.581,8 8,8 H 0 c 1.652,0 3.286,-0.341 4.8,-1.002 L 26.614,32.52 c 9.599,-4.19 9.599,-17.806 0,-21.997 L 4.8,1.002 C 3.286,0.341 1.652,0 0,0 Z"
             style="fill:none;stroke:#000000;stroke-width:15;stroke-linecap:round;stroke-linejoin:round;stroke-miterlimit:10;stroke-dasharray:none;stroke-opacity:1"
             id="path1899" /></g><g
           id="g1901"
           transform="translate(457.604,58.1167)"><path
             d="M 0,0 H -15.69"
             style="fill:none;stroke:#000000;stroke-width:15;stroke-linecap:round;stroke-linejoin:round;stroke-miterlimit:10;stroke-dasharray:none;stroke-opacity:1"
             id="path1903" /></g><g
           id="g1905"
           transform="translate(108.6558,36.5991)"><path
             d="M 0,0 V 43.05"
             style="fill:none;stroke:#000000;stroke-width:15;stroke-linecap:round;stroke-linejoin:round;stroke-miterlimit:10;stroke-dasharray:none;stroke-opacity:1"
             id="path1907" /></g><g
           id="g1909"
           transform="translate(67.9932,203.9639)"><path
             d="m 0,0 v 207.438 c 0,2.209 1.791,4 4,4 h 368.014 c 2.209,0 4,-1.791 4,-4 V 0 c 0,-2.209 -1.791,-4 -4,-4 H 4 C 1.791,-4 0,-2.209 0,0 Z"
             style="fill:none;stroke:#000000;stroke-width:15;stroke-linecap:round;stroke-linejoin:round;stroke-miterlimit:10;stroke-dasharray:none;stroke-opacity:1"
             id="path1911" /></g><g
           id="g1913"
           transform="translate(439.9102,139.9663)"><path
             d="m 0,0 v 24 c 0,3.31 -2.68,6 -6,6 h -355.82 c -3.32,0 -6,-2.69 -6,-6 V 0"
             style="fill:none;stroke:#000000;stroke-width:15;stroke-linecap:round;stroke-linejoin:round;stroke-miterlimit:10;stroke-dasharray:none;stroke-opacity:1"
             id="path1915" /></g><g
           id="g1917"
           transform="translate(191.4346,169.9663)"><path
             d="m 0,0 v -44.41 c 0,-4.418 -3.582,-8 -8,-8 h -28.42 c -4.418,0 -8,3.582 -8,8 V 0"
             style="fill:none;stroke:#000000;stroke-width:15;stroke-linecap:round;stroke-linejoin:round;stroke-miterlimit:10;stroke-dasharray:none;stroke-opacity:1"
             id="path1919" /></g><g
           id="g1921"
           transform="translate(333.2065,307.6831)"><path
             d="m 0,0 c 0,-42.64 -34.566,-77.207 -77.207,-77.207 -42.64,0 -77.206,34.567 -77.206,77.207 0,42.64 34.566,77.207 77.206,77.207 C -34.566,77.207 0,42.64 0,0 Z"
             style="fill:none;stroke:#000000;stroke-width:15;stroke-linecap:round;stroke-linejoin:round;stroke-miterlimit:10;stroke-dasharray:none;stroke-opacity:1"
             id="path1923" /></g><g
           id="g1925"
           transform="translate(227.0508,285.4028)"><path
             d="M 0,0 C 17.855,-10.56 40.044,-10.56 57.898,0"
             style="fill:none;stroke:#000000;stroke-width:15;stroke-linecap:round;stroke-linejoin:round;stroke-miterlimit:10;stroke-dasharray:none;stroke-opacity:1"
             id="path1927" /></g><g
           id="g1929"
           transform="translate(227.0508,331.8828)"><path
             d="M 0,0 V -6.37"
             style="fill:none;stroke:#000000;stroke-width:15;stroke-linecap:round;stroke-linejoin:round;stroke-miterlimit:10;stroke-dasharray:none;stroke-opacity:1"
             id="path1931" /></g><g
           id="g1933"
           transform="translate(284.9492,331.8828)"><path
             d="M 0,0 V -6.37"
             style="fill:none;stroke:#000000;stroke-width:15;stroke-linecap:round;stroke-linejoin:round;stroke-miterlimit:10;stroke-dasharray:none;stroke-opacity:1"
             id="path1935" /></g><g
           id="g1937"
           transform="translate(143.6704,445.4023)"><path
             d="M 0,0 H 225.703"
             style="fill:none;stroke:#000000;stroke-width:15;stroke-linecap:round;stroke-linejoin:round;stroke-miterlimit:10;stroke-dasharray:none;stroke-opacity:1"
             id="path1939" /></g><g
           id="g1941"
           transform="translate(116.3672,304.5786)"><path
             d="M 0,0 C 8.717,8.717 23.709,-6.276 32.426,2.44"
             style="fill:none;stroke:#000000;stroke-width:15;stroke-linecap:round;stroke-linejoin:round;stroke-miterlimit:10;stroke-dasharray:none;stroke-opacity:1"
             id="path1943" /></g><g
           id="g1945"
           transform="translate(363.2065,302.5786)"><path
             d="M 0,0 C 8.717,8.717 23.709,-6.276 32.426,2.44"
             style="fill:none;stroke:#000000;stroke-width:15;stroke-linecap:round;stroke-linejoin:round;stroke-miterlimit:10;stroke-dasharray:none;stroke-opacity:1"
             id="path1947" /></g></g></g></g></svg>
